<?xml version="1.0" encoding="UTF-8"?>
<!DOCTYPE svg PUBLIC "-//W3C//DTD SVG 1.1//EN" "http://www.w3.org/Graphics/SVG/1.1/DTD/svg11.dtd">
<svg xmlns="http://www.w3.org/2000/svg" version="1.1" width="1080px" height="1080px" style="shape-rendering:geometricPrecision; text-rendering:geometricPrecision; image-rendering:optimizeQuality; fill-rule:evenodd; clip-rule:evenodd" xmlns:xlink="http://www.w3.org/1999/xlink">
<g><path style="opacity:1" fill="#fffefe" d="M -0.5,-0.5 C 359.5,-0.5 719.5,-0.5 1079.5,-0.5C 1079.5,359.5 1079.5,719.5 1079.5,1079.5C 719.5,1079.5 359.5,1079.5 -0.5,1079.5C -0.5,719.5 -0.5,359.5 -0.5,-0.5 Z"/></g>
<g><path style="opacity:1" fill="#feab80" d="M 499.5,154.5 C 641.47,151.728 751.97,208.728 831,325.5C 889.105,421.603 902.105,523.603 870,631.5C 833.726,738.876 763.559,815.042 659.5,860C 584.563,889.417 507.897,894.75 429.5,876C 327.764,847.907 250.93,788.073 199,696.5C 148.265,599.478 140.598,499.145 176,395.5C 217.167,290.333 290.333,217.167 395.5,176C 429.285,163.877 463.951,156.711 499.5,154.5 Z"/></g>
<g><path style="opacity:1" fill="#303030" d="M 538.5,374.5 C 560.995,374.16 571.161,385.16 569,407.5C 546.654,489.198 524.321,570.864 502,652.5C 495.146,664.172 484.979,668.672 471.5,666C 456.228,659.287 450.728,647.787 455,631.5C 476.251,553.918 497.251,476.251 518,398.5C 520.417,386.593 527.251,378.593 538.5,374.5 Z"/></g>
<g><path style="opacity:1" fill="#303030" d="M 411.5,423.5 C 436.431,424.047 445.931,436.38 440,460.5C 438.439,463.783 436.273,466.617 433.5,469C 411.651,486.093 389.984,503.426 368.5,521C 388.14,536.818 408.14,552.151 428.5,567C 435.489,571.654 440.656,577.821 444,585.5C 445.342,608.491 434.509,618.991 411.5,617C 408.833,615.667 406.167,614.333 403.5,613C 372.167,589 340.833,565 309.5,541C 301.189,531.688 299.356,521.188 304,509.5C 306.463,506.035 309.296,502.869 312.5,500C 341.789,477.046 370.789,453.713 399.5,430C 403.434,427.536 407.434,425.369 411.5,423.5 Z"/></g>
<g><path style="opacity:1" fill="#303030" d="M 617.5,423.5 C 625.884,422.351 633.551,424.184 640.5,429C 671.167,453.667 701.833,478.333 732.5,503C 743.548,516.575 742.882,529.575 730.5,542C 698.5,566.333 666.5,590.667 634.5,615C 619.257,621.28 607.424,617.447 599,603.5C 593.889,591.17 596.389,580.67 606.5,572C 628.642,555.358 650.642,538.525 672.5,521.5C 650.626,502.795 628.293,484.629 605.5,467C 593.518,448.11 597.518,433.61 617.5,423.5 Z"/></g>
</svg>
